HIERARCHY
ROOT Hips
{
  OFFSET 0 89.5177 0.535
  CHANNELS 6 Xposition Yposition Zposition Zrotation Xrotation Yrotation
  JOINT Spine
  {
    OFFSET 12.0259 -0.162855 1.69034e-005
    CHANNELS 3 Zrotation Xrotation Yrotation
    JOINT Spine1
    {
      OFFSET 15.3169 -0.0121922 0
      CHANNELS 3 Zrotation Xrotation Yrotation
      JOINT Spine2
      {
        OFFSET 15.3176 -0.0121908 0
        CHANNELS 3 Zrotation Xrotation Yrotation
        JOINT Neck
        {
          OFFSET 19.9142 1.56338 0
          CHANNELS 3 Zrotation Xrotation Yrotation
          JOINT Head
          {
            OFFSET 6.92651 0 0
            CHANNELS 3 Zrotation Xrotation Yrotation
            End Site
            {
              OFFSET 20.7666 0 0
            }
          }
          JOINT LeftShoulder
          {
            OFFSET -6.20654 0.708824 7.28219
            CHANNELS 3 Zrotation Xrotation Yrotation
            JOINT LeftArm
            {
              OFFSET 14.108 0 -1.52588e-005
              CHANNELS 3 Zrotation Xrotation Yrotation
              JOINT LeftForeArm
              {
                OFFSET 28.5802 0 0
                CHANNELS 3 Zrotation Xrotation Yrotation
                JOINT LeftHand
                {
                  OFFSET 27.092 0 0
                  CHANNELS 3 Zrotation Xrotation Yrotation
                  End Site
                  {
                    OFFSET 9.55928 -0.186424 0.145352
                  }
                }
              }
            }
          }
          JOINT RightShoulder
          {
            OFFSET -6.20654 0.708866 -7.28218
            CHANNELS 3 Zrotation Xrotation Yrotation
            JOINT RightArm
            {
              OFFSET 14.108 0 1.52588e-005
              CHANNELS 3 Zrotation Xrotation Yrotation
              JOINT RightForeArm
              {
                OFFSET 28.5802 0 0
                CHANNELS 3 Zrotation Xrotation Yrotation
                JOINT RightHand
                {
                  OFFSET 27.092 0 0
                  CHANNELS 3 Zrotation Xrotation Yrotation
                  End Site
                  {
                    OFFSET 9.55929 -0.186417 -0.145354
                  }
                }
              }
            }
          }
        }
      }
    }
  }
  JOINT LeftUpLeg
  {
    OFFSET 0.005 -0.535 8.837
    CHANNELS 3 Zrotation Xrotation Yrotation
    JOINT LeftLeg
    {
      OFFSET 39.9035 0 0
      CHANNELS 3 Zrotation Xrotation Yrotation
      JOINT LeftFoot
      {
        OFFSET 39.6689 0 0
        CHANNELS 3 Zrotation Xrotation Yrotation
        JOINT LeftToe
        {
          OFFSET 10.1624 13.6296 0
          CHANNELS 3 Zrotation Xrotation Yrotation
          End Site
          {
            OFFSET 8.38147 0 0
          }
        }
      }
    }
  }
  JOINT RightUpLeg
  {
    OFFSET 0.005 -0.535 -8.837
    CHANNELS 3 Zrotation Xrotation Yrotation
    JOINT RightLeg
    {
      OFFSET 39.9035 0 0
      CHANNELS 3 Zrotation Xrotation Yrotation
      JOINT RightFoot
      {
        OFFSET 39.6689 0 0
        CHANNELS 3 Zrotation Xrotation Yrotation
        JOINT RightToe
        {
          OFFSET 10.1624 13.6296 0
          CHANNELS 3 Zrotation Xrotation Yrotation
          End Site
          {
            OFFSET 8.38147 0 0
          }
        }
      }
    }
  }
}
MOTION
Frames:	14
Frame Time:	0.0333333
102.68 90.3019 60.9087 -151.521 83.122 -116.821 0.0143378 -0.826491 -1.81882 0.00244182 -1.65255 -3.63782 0.00244169 -1.65255 -3.63783 -8.30669e-012 -9.0191e-006 -5.27751e-005 16.0538 -3.17573 4.14483 179.392 2.7986 -77.7428 -7.74863 3.23524 50.5339 -22.2626 -1.59028e-015 -1.59028e-015 -41.4187 -43.9015 -46.6629 -178.267 5.29435 71.8481 24.4503 -3.55213 -53.028 -2.19922e-006 3.18055e-015 -1.59028e-015 -28.3095 36.0106 29.8839 -8.94651 -0.887996 -175.348 -36.3755 -1.19271e-015 5.96354e-016 31.2206 7.72213 -16.084 90 -1.68967e-015 -7.95139e-016 -31.4565 -17.3925 166.719 -6.22298 -3.18056e-015 1.59028e-015 -5.36377 0.262166 -0.51519 90 0 -0 
104.947 90.4607 57.4044 -158.26 83.769 -109.017 0.176459 -0.482467 -2.09269 0.335211 -0.970584 -4.18395 0.335211 -0.970584 -4.18395 -8.30669e-012 -9.0191e-006 -5.27751e-005 16.8593 -3.38703 4.24835 179.282 3.21742 -77.4135 -6.31902 4.01136 49.158 -22.0956 1.59028e-015 1.59028e-015 -47.6533 -44.5797 -53.5946 -178.368 4.97406 71.8048 21.4635 -3.10391 -54.4674 -1.59955e-006 3.18055e-015 1.59028e-015 -27.5462 34.277 27.5455 -11.7396 -0.907674 -178.527 -38.1542 -9.93923e-016 -9.93923e-017 30.497 6.66458 -13.7821 90 8.44835e-016 -7.95139e-016 -33.2437 -20.885 164.797 -5.76617 3.18056e-015 -7.95139e-016 -0.658974 0.547494 -1.09715 90 -7.95139e-016 -0 
106.956 90.917 54.421 -176.134 84.6183 -91.1007 0.263477 -0.046066 -2.14526 0.525055 -0.101492 -4.29012 0.525055 -0.101492 -4.29013 -8.30669e-012 -9.0191e-006 -5.27751e-005 18.5081 -2.12445 2.74465 179.359 2.74614 -76.8624 -3.39595 3.62801 48.0528 -20.9066 0 3.18055e-015 -52.5231 -44.1851 -59.2827 -178.623 4.21689 71.8927 18.5424 -1.74055 -56.3293 -2.10365e-006 -3.18055e-015 -5.56597e-015 -26.8728 32.6799 26.1019 -14.3183 -0.899212 179.315 -40.0775 5.96354e-016 -3.97569e-016 28.0736 5.14751 -10.5214 90 5.96354e-016 -0 -37.9782 -26.7866 162.629 -12.5795 -3.18056e-015 -0 0.405866 0.0337744 -0.112623 90 -1.59028e-015 3.18055e-015 
108.467 91.6021 51.7731 151.091 85.1308 -58.9795 0.363251 0.481303 -1.94958 0.74271 0.950429 -3.9022 0.742711 0.950429 -3.90221 -8.30669e-012 -9.0191e-006 -5.27751e-005 20.4618 0.770006 -0.240938 179.546 1.83174 -76.0722 0.309559 3.34838 47.6695 -19.4281 -1.59028e-015 2.98177e-015 -57.137 -43.4713 -65.7499 -178.937 3.30732 72.1669 15.9497 0.558167 -57.8722 -0.496091 4.77083e-015 7.95139e-016 -25.7394 31.6469 24.4062 -14.958 0.656288 178.928 -40.1165 -7.95139e-016 -1.98785e-016 25.6053 4.27442 -8.66414 90 -9.93923e-017 1.59028e-015 -38.7257 -27.3138 162.961 -21.1123 3.18056e-015 7.95139e-016 0.978791 0.447189 -0.908742 90 -1.59028e-015 -9.54166e-015 
109.661 92.2649 49.2822 122.207 83.6695 -30.6372 0.287013 1.01809 -1.67114 0.603748 2.02783 -3.34797 0.603749 2.02783 -3.34798 -8.30828e-012 -9.0191e-006 -5.27751e-005 22.9149 4.75499 -4.30745 179.815 0.693492 -75.0314 3.37708 4.69873 47.4864 -17.7018 1.19271e-015 -3.37934e-015 -60.3955 -43.0059 -70.9534 -179.192 2.56311 72.4984 13.4153 3.44205 -59.054 -1.78374 3.18055e-015 1.98785e-015 -26.0282 30.5299 23.1989 -15.0023 3.3274 179.323 -38.926 0 -1.98785e-016 23.5922 4.14913 -8.36939 90 5.96354e-016 -0 -37.6522 -25.4586 163.979 -29.9776 3.18056e-015 3.57812e-015 2.67109 -1.60529 3.05871 90 7.95139e-016 3.18055e-015 
110.75 92.8585 46.8861 109.083 81.5422 -17.7295 0.0941784 1.43945 -1.44467 0.224749 2.87654 -2.89291 0.224749 2.87654 -2.89292 -8.30828e-012 -9.0191e-006 -5.27751e-005 25.504 9.23038 -8.5369 -179.746 -0.895409 -74.1488 5.30187 7.31291 47.2439 -15.7357 1.59028e-015 5.44173e-015 -61.201 -43.7051 -73.0516 -179.331 2.13629 72.6102 10.8045 6.33501 -60.3201 -3.84609 3.18055e-015 3.23025e-015 -28.0005 29.2922 22.3824 -14.9837 5.60701 179.431 -37.1452 -1.19271e-015 -5.96354e-016 21.5745 4.01604 -8.0653 90 1.88845e-015 -1.59028e-015 -35.7345 -23.284 164.746 -38.0027 6.36111e-015 3.97569e-015 4.7898 -4.39925 8.45776 90 1.09332e-015 3.18055e-015 
111.866 93.3075 44.5011 102.647 80.12 -11.1788 -0.108112 1.7297 -1.32412 -0.176308 3.4619 -2.6466 -0.176308 3.4619 -2.64661 -8.30788e-012 -9.0191e-006 -5.27751e-005 28.3767 13.5173 -12.601 -179.26 -2.51449 -73.5954 6.82396 10.14 46.887 -13.73 3.97569e-016 4.79568e-015 -59.3653 -45.1796 -71.7645 -179.353 2.03309 72.3514 7.50006 7.95225 -61.6638 -7.66993 0 -1.19271e-015 -31.1076 29.4551 22.8385 -14.9396 6.82245 178.844 -35.1623 -3.97569e-016 -3.97569e-016 19.4137 3.60667 -7.20662 90 -1.78906e-015 -0 -33.4418 -21.9166 164.793 -45.2061 6.36111e-015 6.36111e-015 6.23347 -5.66112 10.8868 90 -1.19271e-015 -0 
112.953 93.5052 41.9955 98.9152 79.1988 -7.16602 -0.275174 2.10169 -1.27349 -0.504017 4.20942 -2.53926 -0.504017 4.20942 -2.53927 -8.30748e-012 -9.0191e-006 -5.27751e-005 31.2138 16.7106 -16.1057 -178.979 -3.42047 -73.3634 8.55085 12.314 46.5736 -11.7007 2.48481e-015 -5.39514e-015 -56.0029 -46.557 -68.5254 -179.294 2.16275 71.9098 3.74096 8.22228 -62.7776 -13.5571 4.77083e-015 3.97569e-016 -34.5838 32.6218 25.5818 -15.1902 6.98939 177.837 -33.433 -7.95139e-016 -1.98785e-016 17.5296 2.82815 -5.62107 90 -3.03147e-015 -0 -30.9007 -20.9571 164.64 -51.4975 0 1.59028e-015 6.27874 -5.34405 10.203 90 2.38542e-015 -9.54166e-015 
114.059 93.444 39.4008 95.4576 78.5413 -3.09342 -0.321802 2.55002 -1.27327 -0.587622 5.107 -2.53578 -0.587622 5.107 -2.53579 -8.30738e-012 -9.0191e-006 -5.27751e-005 33.522 19.1618 -19.2539 -178.746 -4.13452 -73.113 10.0483 13.4366 46.3278 -9.6938 -1.19271e-015 8.44835e-015 -52.8568 -47.5665 -65.7773 -179.264 2.245 71.8392 -0.387229 7.7093 -63.57 -20.7836 -1.19271e-015 1.19271e-015 -37.8891 37.5312 30.4878 -15.5062 7.32278 176.66 -31.9947 7.95139e-016 -1.98785e-016 16.0242 2.37254 -4.69636 90 2.38542e-015 -0 -27.2976 -18.9219 164.716 -56.0919 -9.54167e-015 -6.36111e-015 5.87327 -5.34284 10.1417 90 0 -0 
115.137 93.1775 36.5216 93.428 78.0422 -0.368523 -0.311445 3.01184 -1.27092 -0.556978 6.03028 -2.53048 -0.556977 6.03028 -2.53049 -8.30768e-012 -9.0191e-006 -5.27751e-005 35.4295 21.0022 -22.1546 -178.478 -4.90188 -72.7254 11.6361 13.1782 46.1066 -8.01655 -7.95139e-016 8.54774e-015 -50.5337 -47.689 -63.7223 -179.356 1.99652 72.1129 -2.67121 8.3866 -64.4077 -27.4206 -8.44835e-016 -7.45443e-017 -39.7113 40.9418 32.9249 -16.4519 8.34624 175.808 -31.051 7.95139e-016 7.95139e-016 15.0838 2.44503 -4.83079 90 4.52235e-015 3.18055e-015 -22.9661 -16.0391 165.02 -58.4696 0 -0 5.59856 -7.43839 14.167 90 7.95139e-015 -9.54166e-015 
116.253 92.7635 33.3041 92.7357 78.2331 1.23951 -0.225369 3.38581 -1.32455 -0.373105 6.77639 -2.6425 -0.373105 6.77639 -2.6425 -8.30788e-012 -9.0191e-006 -5.27751e-005 36.4756 22.3366 -24.4383 -178.135 -5.76543 -72.0404 13.179 11.5012 45.8072 -7.02436 -1.59028e-015 1.19271e-015 -48.7717 -46.9769 -62.0442 -179.555 1.41339 72.54 -3.60569 9.84256 -65.1054 -33.4119 0 -4.37326e-015 -39.0186 43.1708 32.0816 -17.8597 9.01275 174.754 -30.0623 7.95139e-016 -1.98785e-016 13.9146 2.77348 -5.473 90 3.06874e-015 3.18055e-015 -18.3606 -12.9672 165.273 -59.0972 -6.36111e-015 -3.18056e-015 7.56471 -10.4715 20.3108 90 -7.95139e-015 1.59028e-014 
117.41 92.2368 29.6451 94.1342 79.3436 0.618388 -0.101424 3.66544 -1.40813 -0.112698 7.33273 -2.81826 -0.112698 7.33273 -2.81827 -8.30728e-012 -9.0191e-006 -5.27751e-005 36.586 22.8546 -25.8946 -177.827 -6.4667 -71.3787 14.0262 9.14054 45.7832 -6.89979 3.18055e-015 -7.95139e-015 -47.571 -45.7855 -60.4461 -179.713 0.950477 73.1766 -4.55344 11.7325 -65.332 -38.1626 -7.95139e-016 -1.59028e-015 -38.2348 44.0121 30.5638 -20.067 9.36582 173.785 -29.0565 -7.95139e-016 -1.19271e-015 12.3104 3.44267 -6.78502 90 2.73329e-015 -1.59028e-015 -14.3906 -10.6665 165.952 -58.3426 -3.18056e-015 -3.18056e-015 9.99646 -12.3381 24.3872 90 -6.36111e-015 -0 
118.545 91.7436 25.4968 99.1536 80.9657 -4.02748 -0.0122479 3.91176 -1.42971 0.0738519 7.82308 -2.86849 0.0738525 7.82308 -2.86849 -8.30746e-012 -9.0191e-006 -5.27751e-005 36.26 22.4591 -26.7483 -177.517 -7.03389 -70.5004 13.5822 6.66554 46.0474 -7.01777 3.18055e-015 3.97569e-015 -46.6789 -44.926 -58.515 -179.76 0.842187 74.0674 -5.72186 13.8321 -64.8975 -41.1711 0 1.59028e-015 -38.602 44.0403 30.0761 -22.6132 9.47426 173.102 -26.9349 3.97569e-016 -3.97569e-016 9.69796 4.26628 -8.39481 90 -1.98785e-015 -0 -11.7971 -9.22621 167.5 -56.7173 0 1.59028e-015 11.9901 -11.9054 23.6411 90 0 3.18055e-015 
119.671 91.1644 20.8668 109.134 82.6887 -14.0949 0.0928108 4.11366 -1.37786 0.286164 8.22434 -2.773 0.286164 8.22434 -2.77301 -8.30748e-012 -9.0191e-006 -5.27751e-005 35.244 21.4479 -26.9221 -177.218 -7.48642 -69.5463 12.261 4.08355 46.8295 -7.69495 6.36111e-015 -1.59028e-015 -45.7401 -44.5636 -56.8279 -179.832 0.636626 75.2428 -6.18331 15.9993 -64.0932 -42.9102 0 -1.59028e-015 -38.9756 44.1325 30.0046 -25.2121 9.21743 172.67 -23.6268 0 -5.31128e-016 6.40414 5.3318 -10.4803 90 6.55989e-015 -0 -10.3142 -8.92818 169.782 -53.691 0 -0 14.6446 -8.83506 17.4308 90 -3.18055e-015 -3.18055e-015 
